<?xml version="1.0" encoding="UTF-8" standalone="no"?>
<!-- Created with Inkscape (http://www.inkscape.org/) -->

<svg
   xmlns:dc="http://purl.org/dc/elements/1.1/"
   xmlns:cc="http://creativecommons.org/ns#"
   xmlns:rdf="http://www.w3.org/1999/02/22-rdf-syntax-ns#"
   xmlns:svg="http://www.w3.org/2000/svg"
   xmlns="http://www.w3.org/2000/svg"
   version="1.1"
   width="1024"
   height="395"
   id="svg3093">
  <defs
     id="defs3095">
    <clipPath
       id="clipPath3029">
      <path
         d="m 459.01,766.839 107.919,0 0,41.036 -107.919,0 0,-41.036 z"
         id="path3031" />
    </clipPath>
  </defs>
  <metadata
     id="metadata3098">
    <rdf:RDF>
      <cc:Work
         rdf:about="">
        <dc:format>image/svg+xml</dc:format>
        <dc:type
           rdf:resource="http://purl.org/dc/dcmitype/StillImage" />
        <dc:title></dc:title>
      </cc:Work>
    </rdf:RDF>
  </metadata>
  <g
     transform="translate(0,-373)"
     id="layer1">
    <g
       transform="matrix(9.3353693,0,0,-9.3353693,-4274.7598,7920.2648)"
       id="g3025">
      <g
         clip-path="url(#clipPath3029)"
         id="g3027">
        <g
           transform="translate(555.6641,793.6271)"
           id="g3033">
          <path
             d="m 0,0 8.439,0 2.826,-6.062 -21.631,0 6.668,14.523 -2.852,0 2.462,5.758 9.74,-0.006 L 0,0 z m -62.035,4.649 0,9.546 8.43,-0.011 c 4.131,-0.241 8.468,-2.685 9.685,-6.87 l -0.003,6.88 11.447,-0.01 c 2.18,-0.189 4.487,-1.429 5.24,-3.499 0.632,-2.03 0.556,-4.025 -0.725,-5.569 -0.416,-0.424 -1.651,-1.361 -2.227,-1.601 l 4.478,-6.256 0.031,9.86 6.367,0 0,-13.154 -12.268,0 -5.734,10.055 -0.016,-10.055 -6.605,0 -0.014,7.416 c -0.826,-3.156 -4.004,-6.288 -7.084,-6.992 -1.88,-0.446 -3.51,-0.424 -3.51,-0.424 l 0,6.054 c 1.778,0.113 3.64,0.969 4.358,2.663 0.514,1.014 0.257,2.605 -0.333,3.536 -1.158,1.777 -3.14,2.455 -5.243,2.242 l -0.03,-14.504 -6.553,0.009 -5.808,9.79 0,-9.791 -0.243,0 -5.94,12.195 0.002,8.056 6.269,0 6.029,-9.566 z m -7.613,-10.685 -7.73,0 -5.859,12.868 -3.126,-6.923 4.803,0 2.598,-5.945 -17.692,0 9.995,20.283 6.918,-0.01 10.093,-20.273 z m 36.204,13.059 c 0,-2.523 -3.854,-2.103 -3.854,-2.103 l 0,3.795 c 0,0 3.854,0.752 3.854,-1.692 m 22.324,1.46 -0.003,-14.545 -6.503,0 0.009,14.523 -8.102,0.007 -0.005,5.731 20.193,0.014 -2.463,-5.752 -3.126,0.022 z"
             id="path3035"
             style="fill:#006db1;fill-opacity:1;fill-rule:evenodd;stroke:none" />
        </g>
        <g
           transform="translate(507.7433,770.1882)"
           id="g3037">
          <path
             d="m 0,0 4.34,0 0,5.582 4.063,0 0,-5.582 4.34,0 0,14.084 -4.34,0 0,-4.892 -4.063,0 0,4.892 -4.34,0 L 0,0 z"
             id="path3039"
             style="fill:#706f6f;fill-opacity:1;fill-rule:nonzero;stroke:none" />
        </g>
        <g
           transform="translate(544.6698,770.1882)"
           id="g3041">
          <path
             d="m 0,0 0,14.084 -3.906,0 0,-4.971 -0.039,0 c -0.592,0.868 -1.638,1.381 -2.801,1.381 -3.433,0 -4.36,-2.919 -4.36,-5.326 0,-2.564 1.401,-5.424 4.3,-5.424 1.914,0 2.506,0.73 2.999,1.381 l 0.039,0 L -3.768,0 0,0 z m -3.768,5.128 c 0,-1.222 -0.315,-2.544 -1.716,-2.544 -1.401,0 -1.716,1.322 -1.716,2.544 0,1.204 0.315,2.526 1.716,2.526 1.401,0 1.716,-1.322 1.716,-2.526"
             id="path3043"
             style="fill:#706f6f;fill-opacity:1;fill-rule:nonzero;stroke:none" />
        </g>
        <g
           transform="translate(546.9975,770.1882)"
           id="g3045">
          <path
             d="m 0,0 3.906,0 0,4.044 c 0,2.189 0.828,3.097 2.367,3.097 0.788,0 1.144,-0.118 1.538,-0.257 l 0,3.452 c -0.375,0.099 -0.75,0.158 -1.144,0.158 -1.42,0 -2.249,-0.67 -2.88,-1.894 l -0.039,0 0,1.638 L 0,10.238 0,0 z"
             id="path3047"
             style="fill:#706f6f;fill-opacity:1;fill-rule:nonzero;stroke:none" />
        </g>
        <g
           transform="translate(566.3319,775.3167)"
           id="g3049">
          <path
             d="m 0,0 c 0,2.841 -1.736,5.365 -5.582,5.365 -3.847,0 -5.583,-2.524 -5.583,-5.365 0,-2.84 1.736,-5.385 5.583,-5.385 C -1.736,-5.385 0,-2.84 0,0 m -3.906,0 c 0,-1.085 -0.197,-2.544 -1.676,-2.544 -1.48,0 -1.677,1.459 -1.677,2.544 0,1.085 0.197,2.525 1.677,2.525 1.479,0 1.676,-1.44 1.676,-2.525"
             id="path3051"
             style="fill:#706f6f;fill-opacity:1;fill-rule:nonzero;stroke:none" />
        </g>
        <g
           transform="translate(527.5516,775.3982)"
           id="g3053">
          <path
             d="m 0,0 -0.007,-0.017 -0.037,0 -1.835,5.044 -4.181,0 4.226,-9.578 -1.61,-4.008 4.233,0 L 5.581,4.85 5.65,5.027 1.455,5.027 0,0 z"
             id="path3055"
             style="fill:#706f6f;fill-opacity:1;fill-rule:nonzero;stroke:none" />
        </g>
      </g>
    </g>
  </g>
</svg>
