<?xml version="1.0" encoding="UTF-8" standalone="no"?>
<svg
   xmlns:dc="http://purl.org/dc/elements/1.1/"
   xmlns:cc="http://creativecommons.org/ns#"
   xmlns:rdf="http://www.w3.org/1999/02/22-rdf-syntax-ns#"
   xmlns:svg="http://www.w3.org/2000/svg"
   xmlns="http://www.w3.org/2000/svg"
   xmlns:sodipodi="http://sodipodi.sourceforge.net/DTD/sodipodi-0.dtd"
   xmlns:inkscape="http://www.inkscape.org/namespaces/inkscape"
   sodipodi:docname="Kalyani_Logo.svg"
   inkscape:version="1.0 (4035a4fb49, 2020-05-01)"
   id="svg8"
   version="1.1"
   viewBox="0 0 79 87"
   height="87mm"
   width="79mm">
  <defs
     id="defs2" />
  <sodipodi:namedview
     inkscape:window-maximized="0"
     inkscape:window-y="0"
     inkscape:window-x="152"
     inkscape:window-height="1030"
     inkscape:window-width="1375"
     showgrid="false"
     inkscape:document-rotation="0"
     inkscape:current-layer="layer1"
     inkscape:document-units="mm"
     inkscape:cy="178.917"
     inkscape:cx="212.72031"
     inkscape:zoom="1.979899"
     inkscape:pageshadow="2"
     inkscape:pageopacity="0.0"
     borderopacity="1.0"
     bordercolor="#666666"
     pagecolor="#ffffff"
     id="base" />
  <metadata
     id="metadata5">
    <rdf:RDF>
      <cc:Work
         rdf:about="">
        <dc:format>image/svg+xml</dc:format>
        <dc:type
           rdf:resource="http://purl.org/dc/dcmitype/StillImage" />
        <dc:title></dc:title>
      </cc:Work>
    </rdf:RDF>
  </metadata>
  <g
     id="layer1"
     inkscape:groupmode="layer"
     inkscape:label="Layer 1">
    <path
       style="stroke-width:0.264583"
       id="path0"
       d="M 37.012574,0.6442922 C 22.97881,1.7296122 11.356987,11.937242 8.4801721,25.705102 c -0.05847,0.27966 -0.09313,0.52149 -0.07699,0.53763 0.01588,0.0161 0.32729,-0.11165 0.691886,-0.28416 0.3645963,-0.17224 0.9350369,-0.43842 1.2678829,-0.59134 0.332846,-0.1532 0.79666,-0.3683 1.031081,-0.47811 0.234157,-0.11006 0.830263,-0.38682 1.324504,-0.61515 0.494507,-0.2286 1.090613,-0.50536 1.324769,-0.61516 0.234156,-0.1098 0.830263,-0.38629 1.324769,-0.61436 0.494242,-0.22807 1.111779,-0.51567 1.371865,-0.63871 0.26035,-0.12329 0.877622,-0.41089 1.372129,-0.63923 0.494241,-0.2286 1.090348,-0.50535 1.324504,-0.61516 0.234421,-0.10953 0.851694,-0.39687 1.372129,-0.63817 0.520435,-0.24157 1.574271,-0.73157 2.341827,-1.08903 0.767556,-0.35745 1.9812,-0.92154 2.696633,-1.25386 0.715698,-0.33205 1.929077,-0.89614 2.696633,-1.25359 0.767821,-0.35745 1.821657,-0.84746 2.342092,-1.0885 0.520435,-0.2413 1.137708,-0.52837 1.371865,-0.63817 0.234156,-0.1098 0.851693,-0.39714 1.372129,-0.63871 0.873654,-0.40507 3.359679,-1.56051 4.021402,-1.86875 0.156104,-0.0728 0.741362,-0.34502 1.300956,-0.60484 0.559329,-0.25982 1.645179,-0.76464 2.412735,-1.12209 0.767557,-0.35746 1.9812,-0.92155 2.696634,-1.2538602 0.715698,-0.33206 1.929077,-0.8961497 2.696898,-1.2535997 0.767556,-0.35745 1.980935,-0.92154 2.696633,-1.25386 0.715433,-0.33205 1.7907,-0.83212 2.389188,-1.11125 0.598487,-0.27887 1.524529,-0.70908 2.057929,-0.95621 0.5334,-0.24685 0.988218,-0.46011 1.010443,-0.47386 0.04895,-0.0299 -0.269875,-0.20559 -1.436158,-0.79296 C 48.498934,1.3547022 42.635767,0.2095822 37.012578,0.6442922 M 63.553726,13.270742 c -0.810155,0.36301 -1.502569,0.66966 -4.281753,1.89574 -0.572293,0.25268 -1.589087,0.70194 -2.259012,0.99854 -2.855383,1.26365 -3.688821,1.63248 -4.269846,1.88833 -0.338137,0.14896 -1.636977,0.7231 -2.88581,1.27582 -2.344209,1.03717 -3.877204,1.7145 -5.677429,2.50878 -0.572294,0.25241 -1.870869,0.82682 -2.885811,1.27661 -1.014677,0.44953 -2.217737,0.98161 -2.673085,1.18216 -0.455348,0.20082 -1.275027,0.56303 -1.821392,0.80486 -0.546365,0.24183 -1.35546,0.59955 -1.797844,0.79481 -3.501231,1.5457 -5.176308,2.286 -6.552406,2.8956 -0.663575,0.29395 -1.568449,0.694 -2.010833,0.889 -1.05066,0.46329 -3.737239,1.65021 -4.173273,1.84415 -0.187589,0.0833 -0.325966,0.16377 -0.307446,0.17859 0.03307,0.0267 0.26723,0.13441 1.334559,0.61357 0.649552,0.29157 1.342496,0.60325 1.892564,0.85143 0.221192,0.0998 2.988733,1.34488 6.150239,2.76701 3.161507,1.4224 5.929313,2.66753 6.150505,2.76754 0.569648,0.25718 1.332177,0.60061 2.128837,0.95885 0.915723,0.41169 3.293004,1.48273 4.068763,1.83304 0.371475,0.16774 9.741164,4.38388 11.898577,5.3541 1.350962,0.60749 1.654968,0.74481 2.531004,1.14221 0.701146,0.31829 2.500577,1.12686 4.967552,2.23229 0.481542,0.21564 1.042987,0.46884 1.24804,0.5625 0.48895,0.22411 0.42836,0.25189 0.889264,-0.40904 7.298796,-10.4648 7.748852,-23.88076 1.163638,-34.69032 -0.564092,-0.92604 -1.876955,-2.82839 -1.940455,-2.81172 -0.0066,0.002 -0.40587,0.17991 -0.887147,0.39555 M 8.2478721,37.277972 c 0,0.3011 0.42889,2.26245 0.735277,3.36259 3.2850669,11.79142 13.2101169,20.71159 25.2380739,22.683 3.103563,0.50852 6.70613,0.54319 9.769475,0.0939 3.958432,-0.58076 7.53745,-1.81478 11.10615,-3.82932 0.396875,-0.2241 0.401373,-0.20346 -0.09472,-0.43603 -0.227542,-0.10689 -0.850371,-0.39979 -1.383771,-0.65141 -0.5334,-0.25135 -1.097492,-0.51646 -1.253596,-0.58869 -0.156104,-0.0725 -1.401498,-0.65829 -2.767806,-1.30149 -1.366044,-0.64347 -2.664619,-1.25492 -2.885811,-1.35864 -0.221191,-0.10398 -0.945091,-0.44502 -1.608666,-0.75776 -0.663575,-0.31274 -1.376627,-0.6485 -1.584855,-0.74586 -0.931862,-0.43577 -1.838589,-0.86175 -2.318279,-1.08876 -0.286014,-0.13573 -0.690562,-0.3265 -0.898789,-0.42413 -0.858573,-0.40243 -2.028825,-0.95276 -3.524515,-1.65709 -1.421871,-0.66939 -2.383367,-1.1213 -3.524779,-1.65708 -0.208227,-0.0976 -0.58076,-0.27332 -0.827881,-0.39026 -0.501121,-0.23707 -1.901825,-0.89641 -2.483909,-1.16893 -0.207962,-0.0974 -1.45362,-0.68315 -2.767541,-1.30149 -1.313921,-0.61833 -2.580746,-1.21443 -2.814902,-1.32424 -0.404283,-0.1897 -1.153848,-0.54239 -3.974042,-1.87007 -0.676539,-0.31856 -1.400439,-0.65855 -1.608666,-0.75565 -0.208227,-0.0971 -0.921279,-0.43259 -1.584854,-0.74533 -0.663575,-0.313 -1.9304,-0.90964 -2.814902,-1.32609 -0.884767,-0.41646 -2.162175,-1.01786 -2.838715,-1.33642 -0.67654,-0.31855 -1.368425,-0.64346 -1.5374926,-0.72178 -0.169334,-0.0783 -0.614098,-0.2884 -0.9890133,-0.46699 -0.754062,-0.35904 -0.761471,-0.36142 -0.761471,-0.23601 m 54.2877369,43.50809 c 0,3.096412 0.0058,4.356362 0.0127,2.799552 0.0069,-1.556812 0.0069,-4.090192 0,-5.630072 -0.0069,-1.53961 -0.0127,-0.2659 -0.0127,2.83052 M 2.9710221,77.663682 c 0,1.35308 0.0061,1.89971 0.01349,1.21496 0.0074,-0.685 0.0074,-1.79202 0,-2.46036 -0.0074,-0.66807 -0.01349,-0.10768 -0.01349,1.2454 m 73.2845559,3.12235 c 0,3.070492 0.0058,4.319582 0.0127,2.776002 0.0069,-1.543842 0.0069,-4.056062 0,-5.582702 -0.0069,-1.52665 -0.0127,-0.26379 -0.0127,2.8067 M 2.9702291,84.807434 c 0,0.85884 0.0063,1.21655 0.01429,0.7956 0.0077,-0.42122 0.0077,-1.12395 0,-1.56131 -0.0079,-0.43762 -0.01429,-0.0929 -0.01429,0.76571"
       stroke="none"
       fill="#04549b"
       fill-rule="evenodd" />
    <path
       style="stroke-width:0.264583"
       id="path2"
       d="m 17.836103,75.073442 c -0.01164,0.0196 -0.195791,0.42915 -0.40931,0.91069 -0.213519,0.48128 -0.427831,0.96256 -0.47625,1.06918 -0.04842,0.10663 -0.171186,0.38339 -0.27305,0.6149 -0.223573,0.50985 -3.605213,8.107892 -3.743061,8.410312 -0.05371,0.11774 -0.09763,0.23653 -0.09763,0.26405 0,0.0982 2.552171,0.0659 2.587625,-0.0331 0.0164,-0.0455 0.166952,-0.43392 0.334434,-0.86334 0.167481,-0.42941 0.346604,-0.89243 0.397933,-1.02896 l 0.09313,-0.24844 1.901031,2.6e-4 h 1.900767 l 0.373327,1.02897 c 0.205317,0.56594 0.392377,1.066 0.415661,1.11151 0.04948,0.0971 2.54635,0.13123 2.54635,0.0349 0,-0.0265 -0.107421,-0.30877 -0.238919,-0.62706 -0.131233,-0.3183 -0.353219,-0.8554 -0.493183,-1.1938 -0.139965,-0.33814 -0.416984,-1.00886 -0.615686,-1.490142 -0.198702,-0.48154 -0.47625,-1.15199 -0.617008,-1.49039 -0.140759,-0.33814 -0.439473,-1.06204 -0.66384,-1.60841 -0.504031,-1.2266 -0.810154,-1.96929 -1.463146,-3.54832 -0.279664,-0.67654 -0.518848,-1.25677 -0.531548,-1.28932 -0.02566,-0.0653 -0.889529,-0.0873 -0.927629,-0.0236 m 34.887429,0.0691 c -0.03625,0.0934 -0.699029,1.5875 -0.950383,2.1426 -0.0471,0.10424 -0.259557,0.58314 -0.472546,1.06442 -0.212725,0.48154 -0.468842,1.05621 -0.569119,1.27741 -0.487362,1.07658 -2.929731,6.588122 -2.95619,6.671732 -0.0299,0.0942 -0.01482,0.0953 1.259682,0.0826 l 1.289843,-0.0124 0.230188,-0.59135 c 0.126735,-0.32543 0.317765,-0.8202 0.424392,-1.10013 l 0.194204,-0.50853 h 1.901296 1.901031 l 0.169069,0.46143 c 0.09287,0.25347 0.272785,0.74851 0.39952,1.09987 l 0.230453,0.63871 1.26365,0.0127 c 0.994833,0.01 1.263385,-2.7e-4 1.262856,-0.0474 -5.29e-4,-0.0622 -0.06033,-0.20982 -1.181365,-2.922322 -0.370946,-0.89774 -0.85381,-2.06852 -1.072621,-2.60192 -0.21881,-0.5334 -0.512762,-1.24671 -0.65352,-1.58512 -0.140759,-0.33813 -0.418307,-1.00885 -0.617009,-1.49013 -0.198702,-0.48154 -0.475721,-1.15199 -0.615421,-1.4904 -0.1397,-0.33813 -0.306652,-0.74268 -0.370681,-0.89879 l -0.116417,-0.28389 -0.454289,-0.0135 c -0.435504,-0.013 -0.456142,-0.009 -0.496623,0.0945 m -52.07079188,0.0966 c -0.01243,0.0325 -0.0172,2.55005 -0.01058,5.59435 l 0.01217,5.535342 1.14749728,0.0127 1.1472327,0.0127 v -1.54225 -1.541992 l 0.574675,-0.7329 c 0.465666,-0.59399 0.585523,-0.72099 0.632883,-0.67045 0.03202,0.0341 0.352954,0.49873 0.713052,1.03213 0.360098,0.5334 0.783167,1.155972 0.940065,1.383252 0.156898,0.22754 0.538427,0.78634 0.847725,1.24195 l 0.562504,0.82841 h 1.299635 c 1.0202343,0 1.2946073,-0.0127 1.2766153,-0.059 -0.01244,-0.0325 -0.9522363,-1.4478 -2.0880923,-3.145102 l -2.065337,-3.08586 0.863071,-1.12474 c 0.474662,-0.6186 1.0668,-1.39092 1.316037,-1.71609 0.249238,-0.32544 0.702733,-0.91678 1.007269,-1.31418 0.3048,-0.39767 0.5540373,-0.7329 0.5540373,-0.74507 0,-0.0124 -0.5921373,-0.0225 -1.3157733,-0.0225 h -1.315773 l -0.12012,0.13017 c -0.06588,0.0714 -0.48895,0.61966 -0.9398,1.21815 -0.451115,0.59848 -1.247246,1.65232 -1.769534,2.34182 l -0.949589,1.25386 -0.01217,-2.472 -0.01217,-2.472 H 1.8116184 c -0.86571668,0 -1.14194128,0.014 -1.15887428,0.0593 m 27.13434188,5.54725 v 5.606522 l 3.772958,-0.0119 3.772959,-0.0122 0.0127,-1.00542 0.0127,-1.00541 h -2.626519 -2.626783 v -4.588942 -4.58919 h -1.15914 -1.158875 v 5.60652 m 8.562975,-5.56419 c 0,0.0241 0.280723,0.47678 0.623623,1.00621 0.3429,0.52917 0.933979,1.44119 1.313656,2.02671 0.379413,0.58552 0.838729,1.29408 1.020498,1.5748 0.181769,0.28072 0.484452,0.74507 0.672835,1.03187 l 0.342636,0.52176 0.01244,2.492642 0.01217,2.49264 h 1.15914 1.159139 l 0.01217,-2.47914 0.01217,-2.479152 0.484452,-0.75142 c 0.2667,-0.41354 0.580496,-0.89985 0.697442,-1.08108 0.11721,-0.18098 0.400579,-0.62204 0.629973,-0.98002 0.229658,-0.35772 0.809625,-1.2573 1.28905,-1.99893 0.479425,-0.74136 0.872066,-1.36445 0.872066,-1.38456 2.65e-4,-0.0198 -0.558271,-0.0304 -1.240631,-0.0236 l -1.24116,0.0127 -0.61595,0.9734 c -0.338667,0.53552 -0.934773,1.4777 -1.324769,2.09365 -0.389996,0.61595 -0.72099,1.11971 -0.735806,1.11971 -0.02857,0 -0.163513,-0.20769 -1.229255,-1.8923 -0.370416,-0.58552 -0.849312,-1.34117 -1.064418,-1.67957 l -0.391319,-0.61489 -1.235075,-0.0127 c -0.736335,-0.008 -1.235075,0.005 -1.235075,0.0312 m 26.210154,5.5626 v 5.607582 h 1.11125 1.111515 l 0.01217,-3.391702 0.01217,-3.39169 0.75565,0.96705 c 0.415396,0.53181 0.841111,1.07421 0.94615,1.20544 0.104775,0.13097 0.988484,1.25466 1.963473,2.496882 l 1.772973,2.25901 0.497946,-0.0132 0.497946,-0.0135 v -5.653622 -5.65335 h -1.111779 -1.111779 l -0.02355,3.24062 -0.02381,3.24062 -0.595577,-0.73317 c -0.327556,-0.40322 -0.827883,-1.02129 -1.111781,-1.37345 -2.272771,-2.81887 -2.879725,-3.56896 -3.190875,-3.94467 l -0.356394,-0.42995 -0.57785,-0.0135 -0.57785,-0.0132 v 5.60784 m 13.719969,10e-4 v 5.608112 l 1.147233,-0.0127 1.147234,-0.0127 v -5.582682 -5.58245 l -1.147234,-0.0127 -1.147233,-0.0127 v 5.60785 m -57.79426,-0.77788 c 0.141817,0.4019 0.387085,1.09061 0.545042,1.53062 0.15822,0.44 0.287337,0.80724 0.287337,0.81597 0,0.009 -0.521494,0.0161 -1.159139,0.0161 -0.637382,0 -1.158875,-0.0159 -1.158875,-0.0355 0,-0.0196 0.09446,-0.28019 0.20955,-0.57944 0.821795,-2.13545 0.976312,-2.51989 1.003035,-2.49343 0.0082,0.008 0.130969,0.34396 0.27305,0.7456 m 35.132697,0.57864 c 0.209286,0.5932 0.433123,1.21841 0.497682,1.38959 0.06456,0.17119 0.11721,0.32994 0.11721,0.35296 0,0.0228 -0.52414,0.0415 -1.164696,0.0415 -1.086644,0 -1.163108,-0.006 -1.140883,-0.0828 0.01323,-0.0455 0.262202,-0.68951 0.553773,-1.43114 0.291306,-0.74136 0.552714,-1.41102 0.581025,-1.48775 l 0.05106,-0.13943 0.06218,0.13943 c 0.03413,0.0767 0.233363,0.62468 0.442648,1.21761"
       stroke="none"
       fill="#1c1c14"
       fill-rule="evenodd" />
  </g>
</svg>
